<svg width="38" height="25" viewBox="0 0 38 25" fill="none" xmlns="http://www.w3.org/2000/svg">
<path fill-rule="evenodd" clip-rule="evenodd" d="M34.9518 0.265625C36.5164 0.265625 37.7857 1.44089 37.7857 2.88953V22.1315C37.7857 23.5802 36.5164 24.7554 34.9518 24.7554H2.83393C1.26933 24.7554 0 23.5802 0 22.1315V2.88953C0 1.44089 1.26933 0.265625 2.83393 0.265625H34.9518ZM33.9694 2.01488H2.834C2.31283 2.01488 1.88936 2.40697 1.88936 2.88952V21.9285L12.871 11.7115L5.45575 5.28231C5.07494 4.95213 5.05531 4.39864 5.41191 4.04605C5.76852 3.69346 6.36631 3.67529 6.74712 4.00546L18.3503 14.0779C18.677 14.2892 19.1096 14.2892 19.3461 14.1434L33.9694 2.01488ZM34.093 23.0061H3.39648L14.2507 12.9077L17.1637 15.4333C18.2453 16.1438 19.5432 16.1438 20.5184 15.5112L35.888 2.77185C35.8936 2.81034 35.8965 2.84962 35.8965 2.88952V22.1315C35.8965 22.1549 35.8955 22.1782 35.8935 22.2012L27.11 14.0345C26.7419 13.6922 26.1438 13.691 25.7741 14.0319C25.4044 14.3727 25.4032 14.9265 25.7713 15.2688L34.093 23.0061Z" fill="black"/>
</svg>
