<svg width="36" height="37" viewBox="0 0 36 37" fill="none" xmlns="http://www.w3.org/2000/svg">
<path fill-rule="evenodd" clip-rule="evenodd" d="M18 0.838867C8.05887 0.838867 0 8.89774 0 18.8389C0 28.78 8.05887 36.8389 18 36.8389C27.9411 36.8389 36 28.78 36 18.8389C36 8.89774 27.9411 0.838867 18 0.838867ZM14.0425 9.29673C15.0665 9.25013 15.3937 9.23873 18.0009 9.23873H17.9979C20.606 9.23873 20.932 9.25013 21.956 9.29673C22.978 9.34353 23.676 9.50533 24.288 9.74274C24.92 9.98774 25.454 10.3157 25.988 10.8497C26.522 11.3834 26.85 11.919 27.096 12.5504C27.332 13.1608 27.494 13.8584 27.542 14.8804C27.588 15.9044 27.6 16.2316 27.6 18.8388C27.6 21.4461 27.588 21.7725 27.542 22.7965C27.494 23.8181 27.332 24.5159 27.096 25.1265C26.85 25.7577 26.522 26.2933 25.988 26.8269C25.4546 27.3609 24.9198 27.6897 24.2886 27.9349C23.6778 28.1723 22.9794 28.3341 21.9574 28.3809C20.9334 28.4275 20.6072 28.4389 17.9997 28.4389C15.3927 28.4389 15.0657 28.4275 14.0417 28.3809C13.0199 28.3341 12.3221 28.1723 11.7113 27.9349C11.0803 27.6897 10.5446 27.3609 10.0112 26.8269C9.47744 26.2933 9.14943 25.7577 8.90403 25.1263C8.66683 24.5159 8.50503 23.8183 8.45802 22.7963C8.41162 21.7723 8.40002 21.4461 8.40002 18.8388C8.40002 16.2316 8.41202 15.9042 8.45782 14.8802C8.50383 13.8586 8.66583 13.1608 8.90383 12.5502C9.14983 11.919 9.47784 11.3834 10.0118 10.8497C10.5454 10.3159 11.0811 9.98794 11.7125 9.74274C12.3229 9.50533 13.0205 9.34353 14.0425 9.29673Z" fill="black"/>
<path fill-rule="evenodd" clip-rule="evenodd" d="M17.1397 10.969C17.307 10.9687 17.4868 10.9688 17.681 10.9689L18.0009 10.969C20.5642 10.969 20.868 10.9782 21.8802 11.0242C22.8162 11.067 23.3242 11.2234 23.6626 11.3548C24.1106 11.5288 24.43 11.7368 24.7658 12.0728C25.1018 12.4088 25.3098 12.7288 25.4842 13.1768C25.6156 13.5148 25.7722 14.0228 25.8148 14.9588C25.8608 15.9708 25.8708 16.2748 25.8708 18.8368C25.8708 21.3989 25.8608 21.7029 25.8148 22.7149C25.772 23.6509 25.6156 24.1589 25.4842 24.4969C25.3102 24.9449 25.1018 25.2639 24.7658 25.5997C24.4298 25.9357 24.1108 26.1437 23.6626 26.3177C23.3246 26.4497 22.8162 26.6057 21.8802 26.6485C20.8682 26.6945 20.5642 26.7045 18.0009 26.7045C15.4375 26.7045 15.1337 26.6945 14.1217 26.6485C13.1857 26.6053 12.6777 26.4489 12.3391 26.3175C11.8911 26.1435 11.5711 25.9355 11.2351 25.5995C10.8991 25.2635 10.6911 24.9443 10.5167 24.4961C10.3853 24.1581 10.2287 23.6501 10.1861 22.7141C10.1401 21.7021 10.1309 21.3981 10.1309 18.8344C10.1309 16.2708 10.1401 15.9684 10.1861 14.9564C10.2289 14.0204 10.3853 13.5124 10.5167 13.174C10.6907 12.726 10.8991 12.406 11.2351 12.07C11.5711 11.734 11.8911 11.526 12.3391 11.3516C12.6775 11.2196 13.1857 11.0636 14.1217 11.0206C15.0073 10.9806 15.3505 10.9686 17.1397 10.9666V10.969ZM23.1254 12.5631C22.4894 12.5631 21.9734 13.0785 21.9734 13.7147C21.9734 14.3507 22.4894 14.8667 23.1254 14.8667C23.7614 14.8667 24.2774 14.3507 24.2774 13.7147C24.2774 13.0787 23.7614 12.5627 23.1254 12.5627V12.5631ZM13.0709 18.8389C13.0709 16.1163 15.2783 13.9089 18.0009 13.9089H18.0007C20.7234 13.9089 22.9302 16.1163 22.9302 18.8389C22.9302 21.5615 20.7236 23.768 18.0009 23.768C15.2783 23.768 13.0709 21.5615 13.0709 18.8389Z" fill="black"/>
<path d="M18.0008 15.6389C19.768 15.6389 21.2008 17.0715 21.2008 18.8389C21.2008 20.6062 19.768 22.039 18.0008 22.039C16.2334 22.039 14.8008 20.6062 14.8008 18.8389C14.8008 17.0715 16.2334 15.6389 18.0008 15.6389Z" fill="black"/>
</svg>
