<svg width="84" height="62" viewBox="0 0 84 62" fill="none" xmlns="http://www.w3.org/2000/svg">
<path d="M83.75 0.499988C81.4167 10.1667 79.0833 20.6667 76.75 32C74.4167 43.1667 72.5833 53.0833 71.25 61.75H47.5L45.75 59C48.0833 50.1667 51.25 40.5 55.25 30C59.25 19.3333 63.3333 9.49999 67.5 0.499988H83.75ZM37.5 0.499988C35.1667 10.1667 32.8333 20.6667 30.5 32C28.1667 43.1667 26.3333 53.0833 25 61.75H1.5L2.6077e-08 59C2.33333 50.1667 5.41667 40.5 9.25 30C13.25 19.3333 17.3333 9.49999 21.5 0.499988H37.5Z" fill="#70D3EC" fill-opacity="0.3"/>
</svg>
