<svg width="84" height="58" viewBox="0 0 84 58" fill="none" xmlns="http://www.w3.org/2000/svg">
<path d="M32.4418 38.5501C32.1719 37.9789 32.1304 37.4472 32.6908 36.9351C33.2513 37.5062 33.7494 38.0183 34.2475 38.5501C34.3306 38.491 34.4136 38.4319 34.4966 38.3729C34.4551 38.0971 34.4344 37.8214 34.3721 37.3093C34.9533 37.6047 35.4306 37.7623 35.7835 38.0577C35.9911 38.235 36.1364 38.8062 36.0533 38.8653C35.5344 39.2001 34.974 39.6137 34.3721 39.6925C33.4796 39.8107 32.8154 39.3183 32.4418 38.5501Z" fill="#36A9E1"/>
<path d="M18.1618 49.9146C16.6466 49.9146 15.2352 49.9343 13.8238 49.8949C13.6785 49.8949 13.4502 49.6585 13.3879 49.4813C12.2671 46.133 11.167 42.7847 10.067 39.4364C9.83864 38.747 10.1915 38.1955 10.6066 37.6637C12.4332 35.3987 14.2597 33.1534 16.0862 30.8884C16.2315 30.7111 16.3561 30.5338 16.5013 30.3566C15.0899 29.4702 15.0692 29.4506 15.9202 28.0718C16.3976 27.284 16.9165 26.5159 17.4561 25.7674C18.3902 24.4872 18.6185 23.01 18.8883 21.5328C19.9469 15.6437 21.8564 10.0304 25.4887 5.08673C26.6926 3.45197 28.187 1.99448 29.5777 0.477894C30.0966 -0.0932869 30.5948 -0.0341992 31.2174 0.615765C33.5836 3.13684 35.4102 5.97305 36.5725 9.16378C36.7801 9.73496 36.9669 10.3258 37.1537 10.9167C37.5065 12.0197 37.548 12 38.7934 11.9803C41.9276 11.9212 45.041 11.9015 48.1752 11.8621C48.7148 11.8621 49.2545 11.9409 49.7942 11.9606C50.8527 12 51.0395 11.8818 51.3094 10.897C51.9735 8.47443 52.9698 6.1897 54.4435 4.12163C55.253 2.97927 56.1663 1.91569 57.0796 0.852116C58.0551 -0.27055 58.2004 -0.27055 59.3005 0.773332C62.2478 3.55045 64.4895 6.76088 66.1085 10.3652C67.935 14.4817 69.2426 18.736 69.8861 23.1676C70.0729 24.4281 70.8201 25.3932 71.4635 26.4174C72.0862 27.4219 72.7297 28.4264 73.3939 29.5096C72.875 29.8248 72.4598 30.0611 72.0032 30.3369C72.1277 30.5141 72.2315 30.652 72.3561 30.8096C74.2864 33.2125 76.2167 35.6154 78.147 38.0183C78.5621 38.5501 78.6244 39.1212 78.4168 39.7515C77.3375 42.8438 76.2582 45.9557 75.2204 49.0677C74.9921 49.757 74.5977 50.0131 73.8505 49.9934C72.7504 49.954 71.6296 49.9934 70.3842 49.9934C71.422 46.8026 72.4183 43.7301 73.4561 40.5393C71.8372 40.3227 70.2597 40.1257 68.4747 39.8894C69.5332 39.2 70.4257 38.6288 71.3805 37.9986C70.4672 37.2698 69.637 36.5608 68.7652 35.9305C68.4954 35.7335 68.018 35.6548 67.6859 35.7335C66.4406 35.9699 65.216 36.2653 63.9913 36.5411C63.2649 36.6986 62.9743 37.2304 62.746 37.841C62.1856 39.2394 61.6459 40.6378 61.0232 42.0165C60.8157 42.4892 60.442 42.9028 60.1515 43.3362C60.0684 43.2968 59.9854 43.2771 59.9024 43.2377C60.0269 42.3317 60.193 41.4257 60.276 40.5196C60.4213 39.0228 60.5251 37.5259 60.6704 36.0487C60.7326 35.4184 60.359 35.123 59.7571 34.9457C57.723 34.3351 56.0833 33.1928 54.7134 31.5974C54.9832 31.3611 55.2323 31.1641 55.5228 30.908C54.8587 29.9823 54.1945 29.0566 53.4888 28.1506C53.4057 28.0324 53.0736 27.9734 52.9076 28.0521C51.3716 28.7021 50.0432 29.6475 49.0885 30.9671C48.8394 31.302 48.6941 31.7944 48.7148 32.208C48.7771 34.0791 48.8601 35.9502 49.0885 37.8016C49.1922 38.6091 49.6489 39.3773 50.0432 40.1651C51.5169 38.1955 52.5547 36.029 54.8586 34.5912C54.7756 35.1033 54.7134 35.4381 54.6511 35.8517C55.9587 35.8517 57.2041 35.8517 58.5325 35.8517C58.1174 38.1758 56.8305 39.7712 54.6096 40.5984C53.468 41.012 53.0736 41.6423 53.0944 42.7453C53.1151 43.9861 52.9698 45.227 52.8868 46.5466C52.6585 46.4481 52.534 46.4087 52.4509 46.3299C50.832 44.7149 49.1715 43.1392 47.594 41.465C47.1166 40.9727 46.7223 40.2636 46.6392 39.6136C45.9335 34.473 45.3108 29.3324 44.6466 24.1917C44.5844 23.719 44.4806 23.2463 44.3768 22.7736C44.273 22.7736 44.19 22.754 44.0862 22.754C43.9202 23.5812 43.6919 24.3887 43.5881 25.2159C43.0069 30.0611 42.4465 34.926 41.9276 39.7909C41.8446 40.4803 41.554 40.953 41.0351 41.4257C39.4991 42.8635 38.0254 44.38 36.531 45.8769C36.3857 46.0148 36.2819 46.1921 36.1366 46.3299C36.0951 46.389 36.0121 46.4087 35.8045 46.5072C35.7008 45.8375 35.5762 45.227 35.5347 44.6164C35.4517 43.7695 35.4102 42.9028 35.4102 42.0362C35.4102 41.4847 35.1819 41.1302 34.6422 40.8742C33.8742 40.5196 33.127 40.106 32.4213 39.6727C31.3005 39.0031 30.6155 37.9986 30.2419 36.7971C29.9928 35.9896 30.1796 35.7335 31.0514 35.7532C31.9854 35.7729 32.8987 35.832 33.8535 35.8714C33.7912 35.4381 33.7497 35.0836 33.6874 34.5715C36.0744 35.9502 36.9876 38.2349 38.4198 40.3424C38.7104 39.8106 39.0217 39.3773 39.167 38.9243C39.9765 36.6002 39.9973 34.1973 39.8727 31.7747C39.852 31.4792 39.6859 31.1641 39.4991 30.908C38.5651 29.7657 37.4235 28.8794 36.0744 28.19C35.5555 27.934 35.1819 27.9537 34.829 28.4658C34.2478 29.2733 33.6251 30.0611 33.0025 30.8687C33.3138 31.1247 33.6044 31.3217 33.895 31.558C32.7949 32.8973 31.4042 33.7836 29.8268 34.473C29.4739 34.6306 29.1211 34.8078 28.7682 34.926C28.0418 35.1624 27.8134 35.6351 27.8965 36.3638C28.1455 38.4319 28.3531 40.5196 28.5814 42.5877C28.6022 42.8241 28.5814 43.0604 28.5814 43.2968C28.5191 43.3165 28.4361 43.3559 28.3738 43.3755C28.104 42.9422 27.7719 42.5286 27.5644 42.0559C26.9417 40.6378 26.3397 39.1803 25.7793 37.7425C25.5303 37.0926 25.1359 36.6789 24.3887 36.5214C23.3094 36.3047 22.2508 35.9305 21.1507 35.7532C20.6733 35.6745 20.0506 35.7926 19.6563 36.0487C18.7845 36.6002 17.9958 37.2895 17.124 37.9592C18.0788 38.5698 18.9713 39.1409 20.0714 39.8303C18.3071 40.0469 16.7504 40.2439 15.0692 40.4606C16.1277 43.6513 17.124 46.7239 18.1618 49.9146ZM51.3924 16.2937C54.319 18.3815 57.2041 20.4298 60.193 22.5767C59.7571 21.0207 59.3212 19.5238 58.8853 17.9482C59.3835 17.9482 59.7779 17.9482 60.4005 17.9482C59.5288 16.4513 58.6985 15.1119 57.9721 13.7135C57.5777 12.9651 57.1833 12.1379 57.1418 11.3303C57.0588 9.67588 57.8268 8.19868 58.6155 6.64271C60.6288 9.02591 62.1441 11.547 63.4517 14.1862C64.7593 16.8058 65.9632 19.4647 67.2293 22.1237C66.2122 15.1513 64.0951 8.71078 58.491 3.7868C58.3249 3.88528 58.2834 3.90498 58.2419 3.92468C58.1174 4.04285 57.9928 4.18072 57.8683 4.2989C55.2738 6.93815 53.8208 10.1289 52.7623 13.5363C52.4925 14.4029 52.0358 15.2892 53.3642 15.8998C52.5547 16.0573 51.932 16.1755 51.3924 16.2937ZM29.8475 6.72149C29.9306 6.72149 30.0136 6.7018 30.1174 6.7018C30.5532 8.02142 30.9684 9.36074 31.425 10.6804C31.6741 11.3894 31.5495 12.0197 31.1967 12.65C30.4702 13.9302 29.7645 15.2104 29.0796 16.4907C28.8512 16.9043 28.7267 17.377 28.5399 17.8694C29.0173 17.8891 29.3494 17.9088 29.723 17.9285C29.3079 19.4253 28.8928 20.8434 28.4984 22.2616C28.5607 22.2812 28.6022 22.3206 28.6644 22.3403C31.4665 20.3314 34.2893 18.3421 37.2367 16.2346C36.5102 16.1164 36.0329 16.018 35.4102 15.9195C36.4065 15.2104 36.1781 14.3832 35.8876 13.5363C35.8045 13.3196 35.763 13.103 35.68 12.906C34.6629 9.87284 33.21 7.07602 31.0721 4.61403C30.3664 3.8065 30.0136 3.76711 29.2664 4.53525C28.4984 5.32308 27.7097 6.11092 27.0455 6.99723C24.2019 10.7788 22.5829 15.0529 21.6904 19.5829C21.6281 19.9374 21.5451 20.3117 21.4828 20.6662C21.4205 21.0207 21.3998 21.3949 21.3583 21.7495C24.0358 16.6088 26.0492 11.2122 29.8475 6.72149ZM34.4139 37.6637C34.4554 37.9986 34.4761 38.2349 34.5177 38.4713C34.4554 38.5107 34.3931 38.5501 34.3309 38.5894C34.061 38.3334 33.8119 38.0774 33.5214 37.841C33.3346 37.6637 33.1062 37.5456 32.8987 37.388C32.7949 37.644 32.6081 37.9198 32.6289 38.1561C32.7119 38.9834 33.6459 39.6727 34.4969 39.5742C35.0988 39.5152 35.7008 39.2394 35.7423 38.6682C35.6385 38.2152 35.1819 38.0774 34.8498 37.8016C34.746 37.7228 34.6007 37.7228 34.4139 37.6637ZM54.236 37.585C53.7586 37.8213 53.3642 37.9395 53.0529 38.1758C52.8868 38.3137 52.7415 38.7864 52.8038 38.8455C53.1982 39.1409 53.6548 39.4955 54.1322 39.5742C54.8379 39.6924 55.4191 39.2985 55.7512 38.6682C55.9795 38.2152 56.0417 37.7622 55.6059 37.3092C55.1492 37.7622 54.7134 38.1955 54.2982 38.6091C54.236 38.5501 54.1737 38.5107 54.0907 38.4516C54.1322 38.2152 54.1737 37.9986 54.236 37.585Z" fill="black"/>
<path d="M28.7471 12.6891C28.9131 12.0983 29.0584 11.468 29.183 10.7983C27.8546 13.5361 25.6129 15.6238 24.6581 18.6373C24.3883 19.5236 24.1392 20.469 24.5543 20.469C25.5921 20.4493 26.2356 18.854 26.5262 18.1646C26.5677 18.0661 26.6092 17.9676 26.6715 17.8692C27.3979 16.1556 28.2282 14.4618 28.7471 12.6891Z" fill="#36A9E1"/>
<path d="M55.7511 38.6681C55.9795 38.2151 56.0417 37.7621 55.6059 37.3091C55.1492 37.7621 54.7133 38.1954 54.2982 38.609C54.236 38.5499 54.1737 38.5105 54.0907 38.4514C54.1322 38.2151 54.1529 37.9787 54.2359 37.5651C53.7586 37.8015 53.3642 37.9197 53.0529 38.156C52.8868 38.2939 52.7415 38.7666 52.8038 38.8257C53.1981 39.1211 53.6548 39.4756 54.1322 39.5544C54.8586 39.6923 55.4191 39.2984 55.7511 38.6681Z" fill="#36A9E1"/>
<path d="M60.8987 12.2562C60.5666 11.7244 60.2137 11.1926 59.7778 10.6411C60.9194 13.4576 60.9194 16.4514 62.5176 19.1891C62.995 19.9967 63.5347 20.8239 63.8045 20.5481C64.5102 19.8391 63.763 18.2831 63.4517 17.5938C63.4101 17.4953 63.3686 17.3968 63.3271 17.2983C62.5591 15.6045 61.8742 13.8515 60.8987 12.2562Z" fill="#36A9E1"/>
<path d="M8.53076 54.6614C8.53076 54.7205 8.4685 54.7599 8.36472 54.7993L7.65901 55.016V57.4189C7.65901 57.9113 7.59674 57.931 6.66271 57.931C6.22684 57.931 5.39659 57.99 5.23054 57.7143C5.20979 57.6749 5.18903 57.6355 5.14752 57.5567L5.06449 57.4189C4.15122 55.9417 3.69459 55.2326 3.7361 55.272L3.52854 54.9569C3.42476 54.8387 3.19644 54.8781 3.09266 54.9766C3.03039 55.0554 3.03039 55.1735 3.03039 55.3705V57.3795C3.03039 57.8719 3.00964 57.8719 2.01334 57.8719H1.39066C0.830245 57.8325 0.913269 57.5961 0.913269 57.3007V54.9569L0.145293 54.7993C0.0622684 54.7599 0 54.7205 0 54.6614C0 54.6024 0.0622684 54.563 0.145293 54.5236L0.871757 54.3069V51.9237C0.871757 51.6283 0.830245 51.4116 1.24537 51.4116H2.94737C3.15493 51.4116 3.32098 51.4707 3.404 51.6086C3.44552 51.6677 3.50778 51.7858 3.61156 51.9631C3.69459 52.1207 3.77761 52.2388 3.81913 52.3176C4.10971 52.81 4.77391 53.9524 4.96071 54.2872C5.00222 54.3463 5.02298 54.3857 5.06449 54.4251C5.14752 54.5433 5.41735 54.5236 5.45886 54.4054C5.56264 54.2281 5.54188 54.2084 5.54188 53.8933C5.56264 52.5146 5.56264 51.8449 5.56264 51.8843C5.56264 51.4313 5.60415 51.4116 6.47591 51.4116C6.78725 51.4116 7.07784 51.4116 7.34767 51.4313C7.72128 51.4313 7.67976 51.6677 7.67976 51.8843V54.3266L8.38547 54.5433C8.48925 54.563 8.53076 54.6024 8.53076 54.6614Z" fill="black"/>
<path d="M15.4217 56.9067C15.401 56.9854 15.3387 57.0642 15.2349 57.143C13.8235 58.3248 10.8346 58.246 9.69304 57.143C9.48548 56.9461 9.3817 56.69 9.3817 56.3946V52.9084C9.34019 52.3569 9.85909 51.9039 10.8969 51.51C11.1045 51.4312 11.312 51.3721 11.5403 51.3524C12.9518 51.2342 13.865 51.3524 14.6122 51.7069C15.3595 52.0615 15.6085 52.5933 15.6085 53.0857L15.6293 56.1582C15.6085 56.2764 15.567 56.5127 15.4217 56.9067ZM13.3461 56.1976V53.0463C13.3461 52.9084 13.3046 52.8099 13.2631 52.7114C12.9725 52.2584 11.6441 52.3175 11.5196 52.7902C11.4988 52.8493 11.4988 52.9478 11.4988 53.0857V56.1188C11.4988 56.2961 11.5196 56.4537 11.5819 56.5127C11.8724 56.887 12.9102 56.9067 13.2423 56.5324C13.3046 56.4734 13.3461 56.3552 13.3461 56.1976Z" fill="black"/>
<path d="M23.4961 57.7341C23.5377 57.8326 23.4339 57.9113 23.2263 57.9113C22.7489 57.931 22.2093 57.931 21.6073 57.9113C21.213 57.8916 21.1507 57.675 21.0469 57.4189C20.9847 57.2811 20.8601 57.025 20.6941 56.6705L20.362 55.9221C20.2997 55.7448 20.1959 55.5084 19.677 55.5478C19.1581 55.5872 19.1996 55.8433 19.1789 56.119V57.4386C19.1789 57.7144 19.2411 57.931 18.743 57.931C18.3279 57.931 17.892 57.931 17.4769 57.931C16.9995 57.931 17.0617 57.6947 17.0617 57.3992V51.9041C17.0617 51.6677 17.1033 51.5299 17.1863 51.4905C17.3523 51.4117 17.8712 51.4314 18.909 51.4314H19.8638C20.3205 51.4314 20.8394 51.4511 21.3998 51.5496C22.3753 51.6677 23.081 52.101 23.1225 52.6328C23.1433 52.8889 23.1433 53.4404 23.1225 54.2873C23.1225 54.5039 22.9357 54.7206 22.6036 54.9569C22.3546 55.1145 22.2923 55.3115 22.3961 55.5478C22.5621 55.8433 22.8735 56.4735 23.3716 57.4583C23.4546 57.5371 23.4754 57.6553 23.4961 57.7341ZM21.1299 53.0661C21.0884 52.7707 20.8601 52.6328 20.2582 52.5541C20.1337 52.5541 20.0506 52.5344 19.9884 52.5344C18.9921 52.4753 19.1789 52.7116 19.1789 53.4995C19.1789 53.9131 19.1996 54.1691 19.1996 54.1888C19.1996 54.3464 19.3449 54.4449 19.6563 54.4842C20.3205 54.563 20.9431 54.3661 21.0884 54.0115C21.1092 53.9525 21.1299 53.9131 21.1299 53.8934V53.0661Z" fill="black"/>
<path d="M30.5739 52.2586C30.5739 52.3374 30.5324 52.3965 30.4909 52.4359C30.3456 52.495 30.0965 52.495 29.7644 52.495C29.4116 52.495 29.038 52.495 28.8096 52.5934C28.6021 52.6919 28.6021 52.8495 28.6021 53.2237V57.3598C28.6021 57.6947 28.6643 57.9113 28.2285 57.931C27.7511 57.931 27.3152 57.931 26.8793 57.931C26.4019 57.931 26.485 57.6947 26.485 57.4189V53.1252C26.485 52.8101 26.485 52.6919 26.3189 52.5934C26.1321 52.495 25.7792 52.495 25.4264 52.495C25.2188 52.495 25.0943 52.495 25.0113 52.495C24.6584 52.495 24.5339 52.4359 24.5131 52.2586C24.4924 52.0616 24.4924 51.845 24.5131 51.6283C24.5131 51.5495 24.5754 51.4905 24.6169 51.4708C24.7622 51.4117 24.9698 51.4314 25.3849 51.4314H29.7022C30.5532 51.4314 30.5739 51.4314 30.5739 51.8647C30.5947 52.0419 30.5947 52.1798 30.5739 52.2586Z" fill="black"/>
<path d="M37.1949 57.9308C36.8836 57.9308 36.6552 57.9308 36.4892 57.9308C36.0326 57.9111 36.0948 57.7142 36.0948 57.4581L36.0741 55.8431C36.0741 55.6855 36.0533 55.5476 36.0118 55.4688C35.8665 55.2128 35.0985 55.2522 34.5796 55.2719C34.0607 55.2916 34.1022 55.5279 34.1022 55.784V57.4778C34.1022 57.9111 34.04 57.9505 33.1475 57.9505C32.5455 57.9505 32.2342 57.9505 32.0889 57.8914C31.9644 57.8127 31.9644 57.6945 31.9644 57.3597V51.8842C31.9644 51.6478 32.0059 51.5297 32.0889 51.4706C32.2757 51.3918 33.355 51.3918 33.6871 51.4115C34.1645 51.4312 34.1022 51.6478 34.1022 51.9236V53.4599C34.1022 53.7553 34.0607 53.9523 34.2683 54.0507C34.4758 54.1492 35.1193 54.1492 35.5759 54.1098C36.1156 54.0901 36.0741 53.7947 36.0741 53.519V52.6917C36.0741 52.3372 36.0741 52.0418 36.0948 51.8645C36.0948 51.6282 36.1363 51.51 36.2194 51.4509C36.3854 51.3721 37.4647 51.3721 37.7968 51.3918C38.2742 51.4115 38.212 51.6282 38.212 51.8645V57.4187C38.212 57.9111 38.1704 57.9308 37.1949 57.9308Z" fill="black"/>
<path d="M49.5032 52.2387C49.4617 52.4553 49.0881 52.4356 48.6315 52.4356H47.8635H47.0955C46.6181 52.4356 46.0577 52.3963 46.0162 52.7508C45.9955 52.8493 45.9955 53.1053 45.9747 53.5189C45.9747 53.6568 45.9955 53.7553 46.0162 53.8144C46.0992 54.1492 46.4728 54.1098 47.6144 54.1098C48.5069 54.1098 48.5277 54.1295 48.5485 54.5825C48.5485 54.9567 48.6107 55.1931 48.1126 55.1931C48.1541 55.1931 47.8012 55.1931 47.1163 55.1931C46.7842 55.1931 46.5766 55.1931 46.4728 55.2128C46.0785 55.2325 45.9747 55.4294 45.9747 55.8233V57.399C45.9747 57.9111 45.9747 57.9111 44.9784 57.9111C43.9821 57.9111 43.9821 57.9111 43.9821 57.4187V54.9961L43.2556 54.7795C43.1726 54.7598 43.1104 54.7204 43.1104 54.6416C43.1104 54.5825 43.1726 54.5431 43.2556 54.5037L43.9821 54.2871V51.9236C43.9821 51.766 43.9821 51.6675 44.0029 51.6281C44.0236 51.4312 44.1274 51.3721 44.5218 51.3721C44.6671 51.3721 45.0822 51.3721 45.8086 51.3721H48.8598C49.4202 51.3918 49.5032 51.4312 49.5032 51.7266C49.5447 51.9236 49.5447 52.0811 49.5032 52.2387Z" fill="black"/>
<path d="M57.3282 57.7341C57.3697 57.8326 57.2659 57.9113 57.0583 57.9113C56.581 57.931 56.0413 57.931 55.4394 57.9113C55.045 57.8916 54.9827 57.675 54.879 57.4189C54.8167 57.2811 54.6922 57.025 54.5261 56.6705L54.194 55.9221C54.1317 55.7448 54.0279 55.5084 53.509 55.5478C52.9901 55.5872 53.0317 55.8433 53.0109 56.119V57.4386C53.0109 57.7144 53.0732 57.931 52.575 57.931C52.1599 57.931 51.724 57.931 51.3089 57.931C50.8315 57.931 50.8938 57.6947 50.8938 57.3992V51.9041C50.8938 51.6677 50.9353 51.5299 51.0183 51.4905C51.1844 51.4117 51.7033 51.4314 52.7411 51.4314H53.6959C54.1525 51.4314 54.6714 51.4511 55.2318 51.5496C56.2073 51.6677 56.9131 52.101 56.9546 52.6328C56.9753 52.8889 56.9753 53.4404 56.9546 54.2873C56.9546 54.5039 56.7678 54.7206 56.4357 54.9569C56.1866 55.1145 56.1243 55.3115 56.2281 55.5478C56.3941 55.8433 56.7055 56.4735 57.2036 57.4583C57.2867 57.5371 57.3074 57.6553 57.3282 57.7341ZM54.962 53.0661C54.9205 52.7707 54.6921 52.6328 54.0902 52.5541C53.9657 52.5541 53.8827 52.5344 53.8204 52.5344C52.8241 52.4753 53.0109 52.7116 53.0109 53.4995C53.0109 53.9131 53.0317 54.1691 53.0317 54.1888C53.0317 54.3464 53.177 54.4449 53.4883 54.4842C54.1525 54.563 54.7752 54.3661 54.9205 54.0115C54.9412 53.9525 54.962 53.9131 54.962 53.8934V53.0661Z" fill="black"/>
<path d="M59.7775 57.9308C59.4454 57.9308 59.1756 57.9308 59.0095 57.9308C58.5321 57.9111 58.5737 57.6747 58.5737 57.4187V51.8841C58.5737 51.6675 58.6152 51.5296 58.6774 51.4902C58.8643 51.3917 59.9436 51.4114 60.2757 51.4311C60.7531 51.4508 60.6908 51.6675 60.6908 51.9826V57.4975C60.6908 57.9308 60.6493 57.9308 59.7775 57.9308Z" fill="black"/>
<path d="M67.7063 57.734C67.6648 57.9507 67.2289 57.931 66.8553 57.931H62.9531C62.7041 57.931 62.3927 57.931 62.2267 57.8522C62.0606 57.7734 62.0814 57.6552 62.0814 57.3204V51.904C62.0814 51.4313 62.1022 51.4116 62.9739 51.4116H66.8553C67.2704 51.4116 67.4987 51.4313 67.5818 51.4707C67.7478 51.5495 67.727 52.0222 67.6855 52.2389C67.644 52.4555 67.2704 52.4358 66.7515 52.4358H64.9665C64.3646 52.4358 64.2193 52.5343 64.1778 52.8297C64.157 53.1449 64.157 53.46 64.1985 53.7554C64.1985 53.8736 64.2608 53.9721 64.3646 54.0312C64.5721 54.1297 64.9665 54.1297 65.5269 54.1297C65.8175 54.1297 66.025 54.1297 66.1496 54.1297C66.5855 54.1297 66.6892 54.1887 66.71 54.4251C66.7308 54.6221 66.7308 54.819 66.6892 55.016C66.6892 55.1538 66.5439 55.2129 66.2949 55.2129C66.025 55.2129 65.6099 55.2129 65.091 55.2129C64.4061 55.2129 64.2193 55.2523 64.1985 55.6659C64.157 55.8826 64.157 56.1386 64.1778 56.4341C64.2193 56.7295 64.3853 56.828 64.9665 56.828H66.7308C67.2704 56.828 67.6233 56.8083 67.6855 57.025C67.7478 57.281 67.7478 57.4977 67.7063 57.734Z" fill="black"/>
<path d="M75.2201 57.931C74.7842 57.931 73.954 57.9901 73.7879 57.7143C73.7672 57.6749 73.7464 57.6355 73.7049 57.5567L73.6219 57.4189C72.7086 55.9417 72.252 55.2326 72.2935 55.272L72.0859 54.9569C71.9821 54.8387 71.7538 54.8781 71.65 54.9766C71.5878 55.0554 71.5878 55.1735 71.5878 55.3705V57.3795C71.5878 57.8719 71.567 57.8719 70.5707 57.8719H69.948C69.3876 57.8325 69.4706 57.5961 69.4706 57.3007V51.8646C69.4706 51.5692 69.4291 51.3525 69.8443 51.3525H71.5463C71.7538 51.3525 71.9199 51.4116 72.0029 51.5495C72.0444 51.6086 72.1067 51.7268 72.2104 51.904C72.2935 52.0616 72.3765 52.1798 72.418 52.2586C72.7086 52.7509 73.3728 53.8933 73.5596 54.2281C73.6011 54.2872 73.6219 54.3266 73.6634 54.366C73.7464 54.4842 74.0162 54.4645 74.0577 54.3463C74.1615 54.1691 74.1408 54.1494 74.1408 53.8342C74.1615 52.4555 74.1615 51.7858 74.1615 51.8252C74.1615 51.3722 74.203 51.3525 75.0748 51.3525C75.3861 51.3525 75.6767 51.3525 75.9465 51.3722C76.3202 51.3722 76.2786 51.6086 76.2786 51.8252V57.3795C76.2164 57.9113 76.1541 57.931 75.2201 57.931Z" fill="black"/>
<path d="M84.0003 52.928V56.3354C84.0003 56.6702 83.8342 56.9657 83.5229 57.202C82.3813 58.0687 81.7171 57.9111 78.4584 57.9111H78.3961C78.2093 57.9111 78.0848 57.8914 78.0432 57.852C77.898 57.7732 77.8979 57.6747 77.8979 57.3399V51.9038C77.8979 51.766 77.9187 51.6478 77.9187 51.569C77.981 51.3524 78.3753 51.372 78.7074 51.372C80.3679 51.372 81.2189 51.372 81.2604 51.372C81.9039 51.372 82.4643 51.4902 82.9209 51.7266C83.7719 52.1993 84.0003 52.5144 84.0003 52.928ZM81.8831 53.2432C81.8831 53.125 81.8831 53.0462 81.8624 52.9871C81.8001 52.672 81.4888 52.5144 80.9076 52.4947C80.2226 52.475 80.0151 52.5538 80.0358 52.8886V56.296C80.0358 56.5127 80.0151 56.7096 80.3679 56.7884C81.0529 56.9263 81.9039 56.6702 81.9039 56.3157V53.2432H81.8831Z" fill="black"/>
</svg>
