<svg width="96" height="67" viewBox="0 0 96 67" fill="none" xmlns="http://www.w3.org/2000/svg">
<path d="M37.0766 43.9048C36.7682 43.2543 36.7208 42.6487 37.3612 42.0654C38.0017 42.716 38.571 43.2992 39.1403 43.9048C39.2352 43.8375 39.3301 43.7702 39.425 43.7029C39.3775 43.3889 39.3538 43.0749 39.2827 42.4916C39.9469 42.8281 40.4924 43.0076 40.8957 43.344C41.1329 43.5459 41.299 44.1964 41.2041 44.2637C40.6111 44.6451 39.9706 45.1162 39.2827 45.2059C38.2626 45.3405 37.5036 44.7797 37.0766 43.9048Z" fill="#36A9E1"/>
<path d="M20.7562 56.8482C19.0246 56.8482 17.4115 56.8706 15.7985 56.8258C15.6325 56.8258 15.3715 56.5566 15.3004 56.3547C14.0194 52.5413 12.7622 48.7279 11.505 44.9144C11.244 44.1293 11.6473 43.5012 12.1217 42.8956C14.2092 40.3159 16.2966 37.7587 18.3841 35.179C18.5502 34.9771 18.6925 34.7753 18.8585 34.5734C17.2455 33.5639 17.2218 33.5415 18.1943 31.9713C18.7399 31.074 19.333 30.1992 19.9497 29.3468C21.0172 27.8887 21.2781 26.2063 21.5865 24.5239C22.7963 17.8168 24.9786 11.4237 29.1299 5.79333C30.5057 3.93149 32.2136 2.27153 33.8029 0.544278C34.396 -0.106245 34.9653 -0.0389497 35.6769 0.701301C38.3812 3.57258 40.4686 6.80276 41.797 10.4367C42.0342 11.0872 42.2477 11.7602 42.4612 12.4332C42.8645 13.6893 42.9119 13.6669 44.3352 13.6445C47.9171 13.5772 51.4753 13.5547 55.0572 13.5099C55.674 13.5099 56.2907 13.5996 56.9075 13.622C58.1173 13.6669 58.3307 13.5323 58.6391 12.4107C59.3982 9.6516 60.5368 7.04951 62.221 4.69417C63.1462 3.39312 64.1899 2.1818 65.2336 0.970483C66.3485 -0.308132 66.5146 -0.308132 67.7718 0.880755C71.1402 4.04364 73.7021 7.70003 75.5524 11.8051C77.6399 16.4933 79.1343 21.3386 79.8697 26.3858C80.0832 27.8214 80.9371 28.9205 81.6725 30.087C82.3841 31.231 83.1195 32.3751 83.8786 33.6088C83.2855 33.9677 82.8111 34.2369 82.2892 34.5509C82.4316 34.7528 82.5502 34.9099 82.6925 35.0893C84.8986 37.826 87.1047 40.5627 89.3107 43.2994C89.7852 43.905 89.8563 44.5555 89.6191 45.2734C88.3856 48.7952 87.1521 52.3394 85.966 55.8836C85.7051 56.6687 85.2544 56.9603 84.4004 56.9379C83.1432 56.8931 81.8623 56.9379 80.439 56.9379C81.625 53.304 82.7637 49.8046 83.9497 46.1706C82.0995 45.9239 80.2966 45.6996 78.2566 45.4304C79.4664 44.6453 80.4864 43.9947 81.5776 43.2769C80.5339 42.4469 79.585 41.6394 78.5887 40.9216C78.2803 40.6973 77.7347 40.6075 77.3552 40.6973C75.9319 40.9664 74.5324 41.3029 73.1328 41.617C72.3026 41.7964 71.9705 42.4021 71.7095 43.0975C71.0691 44.6901 70.4523 46.2828 69.7407 47.853C69.5035 48.3914 69.0765 48.8625 68.7444 49.356C68.6495 49.3111 68.5546 49.2887 68.4597 49.2438C68.6021 48.2119 68.7918 47.1801 68.8867 46.1482C69.0528 44.4434 69.1714 42.7386 69.3374 41.0562C69.4086 40.3384 68.9816 40.0019 68.2937 39.8C65.969 39.1046 64.095 37.8036 62.5294 35.9866C62.8378 35.7174 63.1224 35.4931 63.4545 35.2015C62.6955 34.1472 61.9364 33.0929 61.1299 32.061C61.035 31.9264 60.6554 31.8591 60.4657 31.9488C58.7103 32.6891 57.1921 33.7658 56.1009 35.2688C55.8163 35.6501 55.6502 36.2109 55.674 36.682C55.7451 38.813 55.84 40.944 56.1009 43.0526C56.2196 43.9723 56.7414 44.8472 57.1921 45.7444C58.8763 43.5012 60.0624 41.0337 62.6955 39.3962C62.6006 39.9794 62.5294 40.3608 62.4582 40.8319C63.9527 40.8319 65.376 40.8319 66.8941 40.8319C66.4197 43.4788 64.949 45.2958 62.4108 46.2379C61.1061 46.709 60.6554 47.4268 60.6791 48.683C60.7029 50.0962 60.5368 51.5094 60.4419 53.0123C60.181 52.9002 60.0387 52.8553 59.9438 52.7656C58.0935 50.9262 56.1958 49.1316 54.393 47.2249C53.8474 46.6641 53.3967 45.8566 53.3018 45.1163C52.4953 39.2616 51.7837 33.4069 51.0246 27.5522C50.9534 27.0138 50.8348 26.4755 50.7162 25.9371C50.5976 25.9371 50.5027 25.9147 50.3841 25.9147C50.1943 26.8568 49.9334 27.7765 49.8148 28.7187C49.1506 34.2369 48.5101 39.7776 47.9171 45.3182C47.8222 46.1033 47.4901 46.6417 46.8971 47.1801C45.1417 48.8176 43.4575 50.5448 41.7496 52.2497C41.5835 52.4067 41.4649 52.6086 41.2989 52.7656C41.2514 52.8329 41.1565 52.8553 40.9193 52.9675C40.8007 52.2048 40.6584 51.5094 40.611 50.814C40.5161 49.8495 40.4686 48.8624 40.4686 47.8755C40.4686 47.2474 40.2077 46.8436 39.5909 46.552C38.7132 46.1482 37.8593 45.6771 37.0528 45.1836C35.7718 44.4209 34.989 43.2769 34.562 41.9086C34.2774 40.9889 34.4909 40.6973 35.4872 40.7197C36.5546 40.7421 37.5984 40.8094 38.6895 40.8543C38.6184 40.3608 38.5709 39.957 38.4998 39.3738C41.2277 40.944 42.2714 43.5461 43.9082 45.9463C44.2403 45.3407 44.5961 44.8472 44.7622 44.3312C45.6873 41.6843 45.711 38.9476 45.5687 36.1885C45.545 35.852 45.3552 35.4931 45.1417 35.2015C44.0743 33.9004 42.7696 32.891 41.2277 32.1059C40.6347 31.8143 40.2077 31.8367 39.8044 32.4199C39.1402 33.3396 38.4286 34.2369 37.717 35.1566C38.0728 35.4482 38.4049 35.6725 38.737 35.9417C37.4797 37.4671 35.8904 38.4765 34.0876 39.2616C33.6843 39.4411 33.2811 39.643 32.8778 39.7776C32.0476 40.0467 31.7866 40.5851 31.8815 41.4151C32.1662 43.7704 32.4034 46.1482 32.6643 48.5035C32.688 48.7727 32.6643 49.0419 32.6643 49.3111C32.5932 49.3335 32.4983 49.3784 32.4271 49.4008C32.1187 48.9073 31.7392 48.4362 31.502 47.8979C30.7903 46.2828 30.1024 44.6228 29.462 42.9853C29.1773 42.2451 28.7266 41.774 27.8726 41.5945C26.6391 41.3478 25.4293 40.9216 24.1721 40.7197C23.6265 40.63 22.9149 40.7646 22.4642 41.0562C21.4679 41.6843 20.5665 42.4694 19.5702 43.2321C20.6614 43.9274 21.6814 44.578 22.9386 45.3631C20.9223 45.6098 19.1432 45.8342 17.2218 46.0809C18.4316 49.7149 19.5702 53.2142 20.7562 56.8482ZM58.734 18.557C62.0787 20.9348 65.376 23.2677 68.7918 25.7128C68.2937 23.9407 67.7955 22.2359 67.2974 20.4413C67.8667 20.4413 68.3174 20.4413 69.029 20.4413C68.0327 18.7365 67.0839 17.2111 66.2536 15.6185C65.8029 14.7661 65.3522 13.8239 65.3048 12.9042C65.2099 11.0199 66.0876 9.33756 66.989 7.56544C69.29 10.2797 71.0216 13.151 72.5161 16.1568C74.0105 19.1403 75.3863 22.1686 76.8333 25.1969C75.671 17.256 73.2514 9.92078 66.8467 4.31283C66.6569 4.42499 66.6095 4.44742 66.562 4.46985C66.4197 4.60444 66.2774 4.76146 66.135 4.89605C63.1699 7.90192 61.5094 11.5359 60.2996 15.4166C59.9912 16.4036 59.4694 17.413 60.9875 18.1084C60.0624 18.2879 59.3508 18.4225 58.734 18.557ZM34.1113 7.65517C34.2062 7.65517 34.3011 7.63274 34.4197 7.63274C34.9178 9.13567 35.3923 10.661 35.9141 12.164C36.1988 12.9715 36.0565 13.6893 35.6532 14.4072C34.823 15.8652 34.0164 17.3233 33.2336 18.7814C32.9727 19.2524 32.8304 19.7908 32.6169 20.3516C33.1625 20.374 33.542 20.3965 33.969 20.4189C33.4946 22.1237 33.0201 23.7388 32.5694 25.3539C32.6406 25.3763 32.688 25.4212 32.7592 25.4436C35.9616 23.1556 39.1877 20.89 42.5561 18.4897C41.7259 18.3552 41.1803 18.243 40.4686 18.1308C41.6072 17.3233 41.3463 16.3812 41.0142 15.4166C40.9193 15.1698 40.8719 14.9231 40.777 14.6988C39.6147 11.2443 37.9542 8.05894 35.5109 5.25496C34.7044 4.33526 34.3011 4.29039 33.4471 5.16524C32.5694 6.06251 31.668 6.95978 30.909 7.96922C27.6591 12.2761 25.8089 17.1438 24.7889 22.3032C24.7177 22.7069 24.6228 23.1331 24.5517 23.5369C24.4805 23.9407 24.4568 24.3669 24.4093 24.7707C27.4694 18.916 29.7703 12.7696 34.1113 7.65517ZM39.33 42.8956C39.3774 43.2769 39.4012 43.5461 39.4486 43.8153C39.3774 43.8602 39.3063 43.905 39.2351 43.9499C38.9267 43.6583 38.6421 43.3666 38.31 43.0975C38.0965 42.8956 37.8356 42.761 37.5984 42.5815C37.4797 42.8732 37.2663 43.1872 37.29 43.4564C37.3849 44.3985 38.4523 45.1836 39.4249 45.0715C40.1128 45.0042 40.8007 44.6901 40.8482 44.0396C40.7296 43.5237 40.2077 43.3666 39.8281 43.0526C39.7095 42.9629 39.5435 42.9629 39.33 42.8956ZM61.9838 42.8059C61.4382 43.075 60.9875 43.2096 60.6317 43.4788C60.4419 43.6358 60.2759 44.1742 60.347 44.2415C60.7978 44.578 61.3196 44.9817 61.8652 45.0715C62.6717 45.2061 63.3359 44.7574 63.7155 44.0396C63.9764 43.5237 64.0476 43.0077 63.5494 42.4918C63.0276 43.0077 62.5294 43.5012 62.055 43.9723C61.9838 43.905 61.9127 43.8602 61.8178 43.7929C61.8652 43.5237 61.9127 43.2769 61.9838 42.8059Z" fill="black"/>
<path d="M32.8541 14.4518C33.0439 13.7788 33.21 13.061 33.3523 12.2983C31.8341 15.4164 29.2722 17.7941 28.181 21.2262C27.8727 22.2356 27.588 23.3124 28.0624 23.3124C29.2485 23.2899 29.9839 21.473 30.316 20.6878C30.3634 20.5757 30.4109 20.4635 30.482 20.3514C31.3123 18.3998 32.2611 16.4707 32.8541 14.4518Z" fill="#36A9E1"/>
<path d="M63.7153 44.0395C63.9763 43.5236 64.0474 43.0076 63.5493 42.4917C63.0274 43.0076 62.5293 43.5011 62.0548 43.9722C61.9837 43.9049 61.9125 43.86 61.8176 43.7927C61.8651 43.5236 61.8888 43.2544 61.9837 42.7833C61.4381 43.0525 60.9874 43.1871 60.6316 43.4563C60.4418 43.6133 60.2757 44.1517 60.3469 44.219C60.7976 44.5554 61.3195 44.9592 61.8651 45.0489C62.6953 45.206 63.3358 44.7573 63.7153 44.0395Z" fill="#36A9E1"/>
<path d="M69.5983 13.9586C69.2188 13.3529 68.8155 12.7472 68.3174 12.1191C69.6221 15.3269 69.6221 18.7365 71.4486 21.8546C71.9942 22.7743 72.6109 23.7164 72.9193 23.4024C73.7258 22.5948 72.8719 20.8227 72.516 20.0376C72.4686 19.9254 72.4212 19.8133 72.3737 19.7011C71.496 17.772 70.7132 15.7755 69.5983 13.9586Z" fill="#36A9E1"/>
<path d="M9.74944 62.254C9.74944 62.3213 9.67828 62.3661 9.55967 62.411L8.75315 62.6578V65.3944C8.75315 65.9552 8.68199 65.9777 7.61453 65.9777C7.11638 65.9777 6.16753 66.045 5.97776 65.7309C5.95404 65.6861 5.93032 65.6412 5.88288 65.5515L5.78799 65.3944C4.74426 63.7121 4.22239 62.9045 4.26983 62.9494L4.03262 62.5905C3.91401 62.4559 3.65308 62.5007 3.53447 62.6129C3.46331 62.7026 3.46331 62.8372 3.46331 63.0615V65.3496C3.46331 65.9104 3.43959 65.9104 2.30096 65.9104H1.58933C0.948851 65.8655 1.04374 65.5963 1.04374 65.2599V62.5905L0.166049 62.411C0.0711638 62.3661 0 62.3213 0 62.254C0 62.1867 0.0711638 62.1418 0.166049 62.097L0.996294 61.8502V59.136C0.996294 58.7995 0.948851 58.5527 1.42328 58.5527H3.36842C3.60563 58.5527 3.7954 58.62 3.89029 58.7771C3.93773 58.8443 4.0089 58.9789 4.1275 59.1808C4.22239 59.3603 4.31727 59.4949 4.36472 59.5846C4.69681 60.1454 5.45589 61.4464 5.66939 61.8278C5.71683 61.8951 5.74055 61.9399 5.78799 61.9848C5.88288 62.1194 6.19125 62.097 6.2387 61.9624C6.3573 61.7605 6.33358 61.7381 6.33358 61.3791C6.3573 59.8089 6.3573 59.0462 6.3573 59.0911C6.3573 58.5752 6.40475 58.5527 7.40104 58.5527C7.75686 58.5527 8.08896 58.5527 8.39733 58.5752C8.82432 58.5752 8.77687 58.8444 8.77687 59.0911V61.8726L9.5834 62.1194C9.702 62.1418 9.74944 62.1867 9.74944 62.254Z" fill="black"/>
<path d="M17.6248 64.8113C17.601 64.901 17.5299 64.9908 17.4113 65.0805C15.7982 66.4264 12.3824 66.3367 11.0777 65.0805C10.8405 64.8562 10.7219 64.5646 10.7219 64.2281V60.2576C10.6744 59.6296 11.2675 59.1136 12.4535 58.665C12.6907 58.5753 12.928 58.508 13.1889 58.4855C14.8019 58.3509 15.8457 58.4855 16.6996 58.8893C17.5536 59.2931 17.8383 59.8987 17.8383 60.4595L17.862 63.9589C17.8383 64.0935 17.7908 64.3627 17.6248 64.8113ZM15.2526 64.0038V60.4147C15.2526 60.2576 15.2052 60.1455 15.1578 60.0333C14.8257 59.5174 13.3075 59.5847 13.1652 60.1231C13.1414 60.1903 13.1414 60.3025 13.1414 60.4595V63.914C13.1414 64.1159 13.1652 64.2954 13.2363 64.3627C13.5684 64.7889 14.7545 64.8113 15.134 64.3851C15.2052 64.3178 15.2526 64.1832 15.2526 64.0038Z" fill="black"/>
<path d="M26.8522 65.7534C26.8997 65.8656 26.7811 65.9553 26.5439 65.9553C25.9983 65.9777 25.3815 65.9777 24.6936 65.9553C24.2429 65.9329 24.1717 65.6861 24.0531 65.3945C23.982 65.2375 23.8396 64.9459 23.6499 64.5421L23.2703 63.6897C23.1992 63.4878 23.0806 63.2186 22.4875 63.2635C21.8945 63.3084 21.9419 63.6 21.9182 63.914V65.417C21.9182 65.731 21.9894 65.9777 21.4201 65.9777C20.9457 65.9777 20.4475 65.9777 19.9731 65.9777C19.4275 65.9777 19.4987 65.7086 19.4987 65.3721V59.1136C19.4987 58.8444 19.5461 58.6874 19.641 58.6425C19.8308 58.5528 20.4238 58.5752 21.6098 58.5752H22.701C23.2229 58.5752 23.8159 58.5977 24.4564 58.7098C25.5713 58.8444 26.3778 59.3379 26.4253 59.9436C26.449 60.2352 26.449 60.8633 26.4253 61.8279C26.4253 62.0746 26.2118 62.3214 25.8322 62.5905C25.5476 62.77 25.4764 62.9943 25.595 63.2635C25.7848 63.6 26.1406 64.3178 26.7099 65.4394C26.8048 65.5291 26.8285 65.6637 26.8522 65.7534ZM24.148 60.4371C24.1006 60.1006 23.8396 59.9436 23.1517 59.8539C23.0094 59.8539 22.9145 59.8314 22.8434 59.8314C21.7047 59.7641 21.9182 60.0333 21.9182 60.9306C21.9182 61.4017 21.9419 61.6933 21.9419 61.7157C21.9419 61.8952 22.108 62.0073 22.4638 62.0522C23.2229 62.1419 23.9345 61.9176 24.1006 61.5138C24.1243 61.4465 24.148 61.4017 24.148 61.3792V60.4371Z" fill="black"/>
<path d="M34.9415 59.5175C34.9415 59.6072 34.894 59.6745 34.8466 59.7194C34.6805 59.7867 34.3959 59.7867 34.0163 59.7867C33.6131 59.7867 33.1861 59.7867 32.9252 59.8988C32.688 60.011 32.688 60.1905 32.688 60.6167V65.3274C32.688 65.7087 32.7591 65.9554 32.261 65.9779C31.7154 65.9779 31.2172 65.9779 30.7191 65.9779C30.1735 65.9779 30.2684 65.7087 30.2684 65.3946V60.5045C30.2684 60.1456 30.2684 60.011 30.0786 59.8988C29.8651 59.7867 29.4619 59.7867 29.0586 59.7867C28.8214 59.7867 28.6791 59.7867 28.5842 59.7867C28.1809 59.7867 28.0386 59.7194 28.0149 59.5175C27.9911 59.2932 27.9911 59.0464 28.0149 58.7997C28.0149 58.71 28.086 58.6427 28.1335 58.6202C28.2995 58.5529 28.5367 58.5754 29.0112 58.5754H33.9452C34.9178 58.5754 34.9415 58.5754 34.9415 59.0689C34.9652 59.2708 34.9652 59.4278 34.9415 59.5175Z" fill="black"/>
<path d="M42.5085 65.9779C42.1527 65.9779 41.8918 65.9779 41.702 65.9779C41.1801 65.9555 41.2513 65.7311 41.2513 65.4395L41.2276 63.6001C41.2276 63.4207 41.2039 63.2636 41.1564 63.1739C40.9904 62.8823 40.1127 62.9272 39.5196 62.9496C38.9266 62.972 38.9741 63.2412 38.9741 63.5328V65.462C38.9741 65.9555 38.9029 66.0003 37.8829 66.0003C37.195 66.0003 36.8391 66.0003 36.6731 65.933C36.5308 65.8433 36.5308 65.7087 36.5308 65.3274V59.0913C36.5308 58.8221 36.5782 58.6876 36.6731 58.6203C36.8866 58.5305 38.1201 58.5305 38.4996 58.553C39.0452 58.5754 38.9741 58.8221 38.9741 59.1362V60.8859C38.9741 61.2223 38.9266 61.4467 39.1638 61.5588C39.401 61.671 40.1364 61.671 40.6583 61.6261C41.275 61.6037 41.2276 61.2672 41.2276 60.9532V60.011C41.2276 59.6073 41.2276 59.2708 41.2513 59.0689C41.2513 58.7997 41.2987 58.6651 41.3936 58.5978C41.5834 58.5081 42.8169 58.5081 43.1964 58.5305C43.742 58.553 43.6709 58.7997 43.6709 59.0689V65.3947C43.6709 65.9555 43.6234 65.9779 42.5085 65.9779Z" fill="black"/>
<path d="M56.5752 59.4948C56.5278 59.7416 56.1008 59.7191 55.5789 59.7191H54.7012H53.8235C53.2779 59.7191 52.6375 59.6743 52.59 60.078C52.5663 60.1902 52.5663 60.4818 52.5426 60.9529C52.5426 61.1099 52.5663 61.2221 52.59 61.2894C52.6849 61.6707 53.1119 61.6258 54.4166 61.6258C55.4366 61.6258 55.4603 61.6483 55.484 62.1642C55.484 62.5904 55.5552 62.8596 54.9859 62.8596C55.0333 62.8596 54.6301 62.8596 53.8473 62.8596C53.4677 62.8596 53.2305 62.8596 53.1119 62.882C52.6612 62.9044 52.5426 63.1288 52.5426 63.5774V65.372C52.5426 65.9552 52.5426 65.9552 51.404 65.9552C50.2653 65.9552 50.2653 65.9552 50.2653 65.3944V62.6353L49.4351 62.3885C49.3402 62.3661 49.269 62.3212 49.269 62.2315C49.269 62.1642 49.3402 62.1193 49.4351 62.0745L50.2653 61.8277V59.1359C50.2653 58.9564 50.2653 58.8443 50.2891 58.7994C50.3128 58.5751 50.4314 58.5078 50.8821 58.5078C51.0481 58.5078 51.5226 58.5078 52.3528 58.5078H55.8398C56.4803 58.5302 56.5752 58.5751 56.5752 58.9116C56.6226 59.1359 56.6226 59.3154 56.5752 59.4948Z" fill="black"/>
<path d="M65.5183 65.7534C65.5657 65.8656 65.4471 65.9553 65.2099 65.9553C64.6643 65.9777 64.0475 65.9777 63.3596 65.9553C62.9089 65.9329 62.8378 65.6861 62.7192 65.3945C62.648 65.2375 62.5057 64.9459 62.3159 64.5421L61.9364 63.6897C61.8652 63.4878 61.7466 63.2186 61.1535 63.2635C60.5605 63.3084 60.608 63.6 60.5842 63.914V65.417C60.5842 65.731 60.6554 65.9777 60.0861 65.9777C59.6117 65.9777 59.1135 65.9777 58.6391 65.9777C58.0935 65.9777 58.1647 65.7086 58.1647 65.3721V59.1136C58.1647 58.8444 58.2121 58.6874 58.307 58.6425C58.4968 58.5528 59.0898 58.5752 60.2759 58.5752H61.367C61.8889 58.5752 62.4819 58.5977 63.1224 58.7098C64.2373 58.8444 65.0438 59.3379 65.0913 59.9436C65.115 60.2352 65.115 60.8633 65.0913 61.8279C65.0913 62.0746 64.8778 62.3214 64.4982 62.5905C64.2136 62.77 64.1424 62.9943 64.261 63.2635C64.4508 63.6 64.8066 64.3178 65.3759 65.4394C65.4708 65.5291 65.4945 65.6637 65.5183 65.7534ZM62.814 60.4371C62.7666 60.1006 62.5057 59.9436 61.8177 59.8539C61.6754 59.8539 61.5805 59.8314 61.5094 59.8314C60.3707 59.7641 60.5842 60.0333 60.5842 60.9306C60.5842 61.4017 60.608 61.6933 60.608 61.7157C60.608 61.8952 60.774 62.0073 61.1298 62.0522C61.8889 62.1419 62.6005 61.9176 62.7666 61.5138C62.7903 61.4465 62.814 61.4017 62.814 61.3792V60.4371Z" fill="black"/>
<path d="M68.3173 65.978C67.9378 65.978 67.6294 65.978 67.4396 65.978C66.894 65.9555 66.9415 65.6863 66.9415 65.3947V59.0914C66.9415 58.8446 66.9889 58.6876 67.0601 58.6427C67.2736 58.5306 68.5071 58.553 68.8866 58.5754C69.4322 58.5979 69.3611 58.8446 69.3611 59.2035V65.4845C69.3611 65.978 69.3136 65.978 68.3173 65.978Z" fill="black"/>
<path d="M77.3786 65.7534C77.3312 66.0001 76.833 65.9777 76.406 65.9777H71.9465C71.6618 65.9777 71.306 65.9777 71.1162 65.888C70.9264 65.7982 70.9502 65.6636 70.9502 65.2823V59.1135C70.9502 58.5752 70.9739 58.5527 71.9702 58.5527H76.406C76.8805 58.5527 77.1414 58.5752 77.2363 58.62C77.4261 58.7098 77.4023 59.2481 77.3549 59.4949C77.3075 59.7416 76.8805 59.7192 76.2874 59.7192H74.2474C73.5595 59.7192 73.3935 59.8314 73.346 60.1678C73.3223 60.5267 73.3223 60.8857 73.3697 61.2221C73.3697 61.3567 73.4409 61.4689 73.5595 61.5362C73.7967 61.6483 74.2474 61.6483 74.8879 61.6483C75.22 61.6483 75.4572 61.6483 75.5995 61.6483C76.0977 61.6483 76.2163 61.7156 76.24 61.9848C76.2637 62.2091 76.2637 62.4335 76.2163 62.6578C76.2163 62.8148 76.0502 62.8821 75.7656 62.8821C75.4572 62.8821 74.9828 62.8821 74.3897 62.8821C73.6069 62.8821 73.3934 62.9269 73.3697 63.398C73.3223 63.6448 73.3223 63.9364 73.346 64.2729C73.3935 64.6093 73.5832 64.7215 74.2474 64.7215H76.2637C76.8805 64.7215 77.2837 64.6991 77.3549 64.9458C77.4261 65.2374 77.4261 65.4842 77.3786 65.7534Z" fill="black"/>
<path d="M85.9659 65.9776C85.4677 65.9776 84.5189 66.0449 84.3291 65.7308C84.3054 65.686 84.2817 65.6411 84.2342 65.5514L84.1393 65.3944C83.0956 63.712 82.5737 62.9044 82.6212 62.9493L82.384 62.5904C82.2654 62.4558 82.0044 62.5006 81.8858 62.6128C81.8147 62.7025 81.8147 62.8371 81.8147 63.0614V65.3495C81.8147 65.9103 81.7909 65.9103 80.6523 65.9103H79.9407C79.3002 65.8654 79.3951 65.5962 79.3951 65.2598V59.0686C79.3951 58.7321 79.3476 58.4854 79.8221 58.4854H81.7672C82.0044 58.4854 82.1942 58.5526 82.2891 58.7097C82.3365 58.777 82.4077 58.9116 82.5263 59.1134C82.6212 59.2929 82.7161 59.4275 82.7635 59.5172C83.0956 60.078 83.8547 61.3791 84.0682 61.7604C84.1156 61.8277 84.1393 61.8726 84.1868 61.9174C84.2817 62.052 84.59 62.0296 84.6375 61.895C84.7561 61.6931 84.7324 61.6707 84.7324 61.3118C84.7561 59.7415 84.7561 58.9789 84.7561 59.0237C84.7561 58.5078 84.8035 58.4854 85.7998 58.4854C86.1556 58.4854 86.4877 58.4854 86.7961 58.5078C87.2231 58.5078 87.1757 58.777 87.1757 59.0237V65.3495C87.1045 65.9552 87.0333 65.9776 85.9659 65.9776Z" fill="black"/>
<path d="M95.9999 60.28V64.1607C95.9999 64.542 95.8102 64.8785 95.4543 65.1477C94.1497 66.1347 93.3906 65.9552 89.6664 65.9552H89.5952C89.3817 65.9552 89.2394 65.9328 89.1919 65.8879C89.0259 65.7982 89.0259 65.686 89.0259 65.3047V59.1135C89.0259 58.9565 89.0496 58.8219 89.0496 58.7322C89.1208 58.4854 89.5715 58.5079 89.951 58.5079C91.8487 58.5079 92.8213 58.5079 92.8687 58.5079C93.6041 58.5079 94.2446 58.6424 94.7664 58.9116C95.739 59.45 95.9999 59.8089 95.9999 60.28ZM93.5804 60.6389C93.5804 60.5043 93.5804 60.4146 93.5566 60.3473C93.4855 59.9884 93.1297 59.8089 92.4655 59.7865C91.6827 59.764 91.4455 59.8538 91.4692 60.2351V64.1158C91.4692 64.3626 91.4455 64.5869 91.8487 64.6766C92.6315 64.8336 93.6041 64.542 93.6041 64.1382V60.6389H93.5804Z" fill="black"/>
</svg>
