<svg width="171" height="38" viewBox="0 0 171 38" fill="none" xmlns="http://www.w3.org/2000/svg">
<path d="M13.248 6.4V19H10.314L4.752 12.286V19H1.26V6.4H4.194L9.756 13.114V6.4H13.248ZM22.116 19.252C20.784 19.252 19.584 18.97 18.516 18.406C17.46 17.842 16.626 17.062 16.014 16.066C15.414 15.07 15.114 13.948 15.114 12.7C15.114 11.452 15.414 10.33 16.014 9.334C16.626 8.338 17.46 7.558 18.516 6.994C19.584 6.43 20.784 6.148 22.116 6.148C23.448 6.148 24.642 6.43 25.698 6.994C26.766 7.558 27.6 8.338 28.2 9.334C28.812 10.33 29.118 11.452 29.118 12.7C29.118 13.948 28.812 15.07 28.2 16.066C27.6 17.062 26.766 17.842 25.698 18.406C24.642 18.97 23.448 19.252 22.116 19.252ZM22.116 16.3C22.752 16.3 23.328 16.15 23.844 15.85C24.36 15.55 24.768 15.13 25.068 14.59C25.368 14.038 25.518 13.408 25.518 12.7C25.518 11.992 25.368 11.368 25.068 10.828C24.768 10.276 24.36 9.85 23.844 9.55C23.328 9.25 22.752 9.1 22.116 9.1C21.48 9.1 20.904 9.25 20.388 9.55C19.872 9.85 19.464 10.276 19.164 10.828C18.864 11.368 18.714 11.992 18.714 12.7C18.714 13.408 18.864 14.038 19.164 14.59C19.464 15.13 19.872 15.55 20.388 15.85C20.904 16.15 21.48 16.3 22.116 16.3ZM36.4926 15.652H34.5486V19H30.9846V6.4H36.7446C37.8846 6.4 38.8746 6.592 39.7146 6.976C40.5546 7.348 41.2026 7.888 41.6586 8.596C42.1146 9.292 42.3426 10.114 42.3426 11.062C42.3426 11.974 42.1266 12.772 41.6946 13.456C41.2746 14.128 40.6686 14.656 39.8766 15.04L42.5946 19H38.7786L36.4926 15.652ZM38.7426 11.062C38.7426 10.474 38.5566 10.018 38.1846 9.694C37.8126 9.37 37.2606 9.208 36.5286 9.208H34.5486V12.898H36.5286C37.2606 12.898 37.8126 12.742 38.1846 12.43C38.5566 12.106 38.7426 11.65 38.7426 11.062ZM46.815 9.226H42.945V6.4H54.231V9.226H50.379V19H46.815V9.226ZM67.5468 6.4V19H63.9828V14.086H59.1228V19H55.5588V6.4H59.1228V11.134H63.9828V6.4H67.5468ZM78.8631 9.154V11.926H84.4251V14.68H78.8631V19H75.2991V6.4H85.1811V9.154H78.8631ZM92.3559 15.652H90.4119V19H86.8479V6.4H92.6079C93.7479 6.4 94.7379 6.592 95.5779 6.976C96.4179 7.348 97.0659 7.888 97.5219 8.596C97.9779 9.292 98.2059 10.114 98.2059 11.062C98.2059 11.974 97.9899 12.772 97.5579 13.456C97.1379 14.128 96.5319 14.656 95.7399 15.04L98.4579 19H94.6419L92.3559 15.652ZM94.6059 11.062C94.6059 10.474 94.4199 10.018 94.0479 9.694C93.6759 9.37 93.1239 9.208 92.3919 9.208H90.4119V12.898H92.3919C93.1239 12.898 93.6759 12.742 94.0479 12.43C94.4199 12.106 94.6059 11.65 94.6059 11.062ZM100.172 6.4H103.736V19H100.172V6.4ZM116.388 16.246V19H106.272V6.4H116.154V9.154H109.8V11.278H115.398V13.942H109.8V16.246H116.388ZM130.353 6.4V19H127.419L121.857 12.286V19H118.365V6.4H121.299L126.861 13.114V6.4H130.353ZM132.867 6.4H138.825C140.205 6.4 141.429 6.658 142.497 7.174C143.565 7.69 144.393 8.422 144.981 9.37C145.569 10.318 145.863 11.428 145.863 12.7C145.863 13.972 145.569 15.082 144.981 16.03C144.393 16.978 143.565 17.71 142.497 18.226C141.429 18.742 140.205 19 138.825 19H132.867V6.4ZM138.681 16.156C139.761 16.156 140.625 15.85 141.273 15.238C141.933 14.626 142.263 13.78 142.263 12.7C142.263 11.62 141.933 10.774 141.273 10.162C140.625 9.55 139.761 9.244 138.681 9.244H136.431V16.156H138.681Z" fill="#161616"/>
<path d="M6.888 29.448V36H5.1V30.792H2.724V36H0.936V29.448H6.888ZM10.4921 32.04C10.4921 32.176 10.4841 32.344 10.4681 32.544C10.4601 32.744 10.4481 32.948 10.4321 33.156C10.4241 33.364 10.4121 33.548 10.3961 33.708C10.3801 33.868 10.3681 33.98 10.3601 34.044L13.3841 29.448H15.5321V36H13.8041V33.384C13.8041 33.168 13.8121 32.932 13.8281 32.676C13.8441 32.412 13.8601 32.168 13.8761 31.944C13.9001 31.712 13.9161 31.536 13.9241 31.416L10.9121 36H8.76413V29.448H10.4921V32.04ZM22.8248 30.792H20.6768V36H18.8888V30.792H16.7408V29.448H22.8248V30.792ZM29.8685 32.712C29.8685 33.8 29.5805 34.64 29.0045 35.232C28.4365 35.824 27.6605 36.12 26.6765 36.12C26.0685 36.12 25.5245 35.988 25.0445 35.724C24.5725 35.46 24.2005 35.076 23.9285 34.572C23.6565 34.06 23.5205 33.44 23.5205 32.712C23.5205 31.624 23.8045 30.788 24.3725 30.204C24.9405 29.62 25.7205 29.328 26.7125 29.328C27.3285 29.328 27.8725 29.46 28.3445 29.724C28.8165 29.988 29.1885 30.372 29.4605 30.876C29.7325 31.372 29.8685 31.984 29.8685 32.712ZM25.3445 32.712C25.3445 33.36 25.4485 33.852 25.6565 34.188C25.8725 34.516 26.2205 34.68 26.7005 34.68C27.1725 34.68 27.5125 34.516 27.7205 34.188C27.9365 33.852 28.0445 33.36 28.0445 32.712C28.0445 32.064 27.9365 31.58 27.7205 31.26C27.5125 30.932 27.1685 30.768 26.6885 30.768C26.2165 30.768 25.8725 30.932 25.6565 31.26C25.4485 31.58 25.3445 32.064 25.3445 32.712ZM39.6022 29.448V36H37.9342V32.784C37.9342 32.464 37.9382 32.152 37.9462 31.848C37.9622 31.544 37.9822 31.264 38.0062 31.008H37.9702L36.1582 36H34.8142L32.9782 30.996H32.9302C32.9622 31.26 32.9822 31.544 32.9902 31.848C33.0062 32.144 33.0142 32.472 33.0142 32.832V36H31.3462V29.448H33.8782L35.5102 33.888L37.1662 29.448H39.6022ZM43.2592 29.448V31.968H45.7552V29.448H47.5432V36H45.7552V33.3H43.2592V36H41.4712V29.448H43.2592ZM51.1445 32.04C51.1445 32.176 51.1365 32.344 51.1205 32.544C51.1125 32.744 51.1005 32.948 51.0845 33.156C51.0765 33.364 51.0645 33.548 51.0485 33.708C51.0325 33.868 51.0205 33.98 51.0125 34.044L54.0365 29.448H56.1845V36H54.4565V33.384C54.4565 33.168 54.4645 32.932 54.4805 32.676C54.4965 32.412 54.5125 32.168 54.5285 31.944C54.5525 31.712 54.5685 31.536 54.5765 31.416L51.5645 36H49.4165V29.448H51.1445V32.04ZM62.3492 29.448H64.3172L61.7252 32.592L64.5452 36H62.5172L59.8412 32.676V36H58.0532V29.448H59.8412V32.628L62.3492 29.448ZM71.3109 36.12C70.3349 36.12 69.5789 35.852 69.0429 35.316C68.5149 34.772 68.2509 33.92 68.2509 32.76C68.2509 31.96 68.3869 31.308 68.6589 30.804C68.9309 30.3 69.3069 29.928 69.7869 29.688C70.2749 29.448 70.8349 29.328 71.4669 29.328C71.9149 29.328 72.3029 29.372 72.6309 29.46C72.9669 29.548 73.2589 29.652 73.5069 29.772L72.9789 31.152C72.6989 31.04 72.4349 30.948 72.1869 30.876C71.9469 30.804 71.7069 30.768 71.4669 30.768C70.5389 30.768 70.0749 31.428 70.0749 32.748C70.0749 33.404 70.1949 33.888 70.4349 34.2C70.6829 34.512 71.0269 34.668 71.4669 34.668C71.8429 34.668 72.1749 34.62 72.4629 34.524C72.7509 34.42 73.0309 34.28 73.3029 34.104V35.628C73.0309 35.804 72.7429 35.928 72.4389 36C72.1429 36.08 71.7669 36.12 71.3109 36.12ZM80.763 32.712C80.763 33.8 80.475 34.64 79.899 35.232C79.331 35.824 78.555 36.12 77.571 36.12C76.963 36.12 76.419 35.988 75.939 35.724C75.467 35.46 75.095 35.076 74.823 34.572C74.551 34.06 74.415 33.44 74.415 32.712C74.415 31.624 74.699 30.788 75.267 30.204C75.835 29.62 76.615 29.328 77.607 29.328C78.223 29.328 78.767 29.46 79.239 29.724C79.711 29.988 80.083 30.372 80.355 30.876C80.627 31.372 80.763 31.984 80.763 32.712ZM76.239 32.712C76.239 33.36 76.343 33.852 76.551 34.188C76.767 34.516 77.115 34.68 77.595 34.68C78.067 34.68 78.407 34.516 78.615 34.188C78.831 33.852 78.939 33.36 78.939 32.712C78.939 32.064 78.831 31.58 78.615 31.26C78.407 30.932 78.063 30.768 77.583 30.768C77.111 30.768 76.767 30.932 76.551 31.26C76.343 31.58 76.239 32.064 76.239 32.712ZM81.8447 32.076C81.8447 30.628 82.1167 29.504 82.6607 28.704C83.2127 27.904 84.1207 27.392 85.3847 27.168C85.8087 27.096 86.2367 27.036 86.6687 26.988C87.1087 26.932 87.5607 26.876 88.0247 26.82L88.2287 28.38C87.9567 28.412 87.6567 28.448 87.3287 28.488C87.0087 28.528 86.6887 28.568 86.3687 28.608C86.0567 28.64 85.7767 28.676 85.5287 28.716C85.1287 28.78 84.7967 28.88 84.5327 29.016C84.2687 29.144 84.0647 29.352 83.9207 29.64C83.7847 29.928 83.7007 30.344 83.6687 30.888H83.7527C83.8487 30.736 83.9807 30.584 84.1487 30.432C84.3247 30.28 84.5407 30.152 84.7967 30.048C85.0527 29.944 85.3447 29.892 85.6727 29.892C86.4567 29.892 87.0767 30.132 87.5327 30.612C87.9967 31.092 88.2287 31.808 88.2287 32.76C88.2287 33.504 88.0927 34.124 87.8207 34.62C87.5487 35.116 87.1727 35.492 86.6927 35.748C86.2127 35.996 85.6567 36.12 85.0247 36.12C84.0567 36.12 83.2847 35.772 82.7087 35.076C82.1327 34.38 81.8447 33.38 81.8447 32.076ZM85.1327 34.668C85.5087 34.668 85.8127 34.54 86.0447 34.284C86.2847 34.028 86.4047 33.572 86.4047 32.916C86.4047 32.396 86.3167 31.984 86.1407 31.68C85.9727 31.368 85.6767 31.212 85.2527 31.212C84.9967 31.212 84.7567 31.276 84.5327 31.404C84.3167 31.524 84.1327 31.664 83.9807 31.824C83.8287 31.976 83.7247 32.108 83.6687 32.22C83.6687 32.628 83.7127 33.02 83.8007 33.396C83.8887 33.772 84.0367 34.08 84.2447 34.32C84.4607 34.552 84.7567 34.668 85.1327 34.668ZM92.3935 29.316C93.2735 29.316 93.9455 29.508 94.4095 29.892C94.8815 30.268 95.1175 30.848 95.1175 31.632V36H93.8695L93.5215 35.112H93.4735C93.1935 35.464 92.8975 35.72 92.5855 35.88C92.2735 36.04 91.8455 36.12 91.3015 36.12C90.7175 36.12 90.2335 35.952 89.8495 35.616C89.4655 35.272 89.2735 34.748 89.2735 34.044C89.2735 33.348 89.5175 32.836 90.0055 32.508C90.4935 32.172 91.2255 31.988 92.2015 31.956L93.3415 31.92V31.632C93.3415 31.288 93.2495 31.036 93.0655 30.876C92.8895 30.716 92.6415 30.636 92.3215 30.636C92.0015 30.636 91.6895 30.684 91.3855 30.78C91.0815 30.868 90.7775 30.98 90.4735 31.116L89.8855 29.904C90.2375 29.72 90.6255 29.576 91.0495 29.472C91.4815 29.368 91.9295 29.316 92.3935 29.316ZM92.6455 32.988C92.0695 33.004 91.6695 33.108 91.4455 33.3C91.2215 33.492 91.1095 33.744 91.1095 34.056C91.1095 34.328 91.1895 34.524 91.3495 34.644C91.5095 34.756 91.7175 34.812 91.9735 34.812C92.3575 34.812 92.6815 34.7 92.9455 34.476C93.2095 34.244 93.3415 33.92 93.3415 33.504V32.964L92.6455 32.988ZM101.244 29.448H103.212L100.62 32.592L103.44 36H101.412L98.7357 32.676V36H96.9477V29.448H98.7357V32.628L101.244 29.448ZM112.05 32.652L109.938 29.448H111.966L113.238 31.536L114.522 29.448H116.55L114.414 32.652L116.646 36H114.618L113.238 33.756L111.858 36H109.83L112.05 32.652ZM120.331 29.316C121.211 29.316 121.883 29.508 122.347 29.892C122.819 30.268 123.055 30.848 123.055 31.632V36H121.807L121.459 35.112H121.411C121.131 35.464 120.835 35.72 120.523 35.88C120.211 36.04 119.783 36.12 119.239 36.12C118.655 36.12 118.171 35.952 117.787 35.616C117.403 35.272 117.211 34.748 117.211 34.044C117.211 33.348 117.455 32.836 117.943 32.508C118.431 32.172 119.163 31.988 120.139 31.956L121.279 31.92V31.632C121.279 31.288 121.187 31.036 121.003 30.876C120.827 30.716 120.579 30.636 120.259 30.636C119.939 30.636 119.627 30.684 119.323 30.78C119.019 30.868 118.715 30.98 118.411 31.116L117.823 29.904C118.175 29.72 118.563 29.576 118.987 29.472C119.419 29.368 119.867 29.316 120.331 29.316ZM120.583 32.988C120.007 33.004 119.607 33.108 119.383 33.3C119.159 33.492 119.047 33.744 119.047 34.056C119.047 34.328 119.127 34.524 119.287 34.644C119.447 34.756 119.655 34.812 119.911 34.812C120.295 34.812 120.619 34.7 120.883 34.476C121.147 34.244 121.279 33.92 121.279 33.504V32.964L120.583 32.988ZM127.549 36.12C126.573 36.12 125.817 35.852 125.281 35.316C124.753 34.772 124.489 33.92 124.489 32.76C124.489 31.96 124.625 31.308 124.897 30.804C125.169 30.3 125.545 29.928 126.025 29.688C126.513 29.448 127.073 29.328 127.705 29.328C128.153 29.328 128.541 29.372 128.869 29.46C129.205 29.548 129.497 29.652 129.745 29.772L129.217 31.152C128.937 31.04 128.673 30.948 128.425 30.876C128.185 30.804 127.945 30.768 127.705 30.768C126.777 30.768 126.313 31.428 126.313 32.748C126.313 33.404 126.433 33.888 126.673 34.2C126.921 34.512 127.265 34.668 127.705 34.668C128.081 34.668 128.413 34.62 128.701 34.524C128.989 34.42 129.269 34.28 129.541 34.104V35.628C129.269 35.804 128.981 35.928 128.677 36C128.381 36.08 128.005 36.12 127.549 36.12ZM135.345 29.448H137.313L134.721 32.592L137.541 36H135.513L132.837 32.676V36H131.049V29.448H132.837V32.628L135.345 29.448ZM140.207 32.04C140.207 32.176 140.199 32.344 140.183 32.544C140.175 32.744 140.163 32.948 140.147 33.156C140.139 33.364 140.127 33.548 140.111 33.708C140.095 33.868 140.083 33.98 140.075 34.044L143.099 29.448H145.247V36H143.519V33.384C143.519 33.168 143.527 32.932 143.543 32.676C143.559 32.412 143.575 32.168 143.591 31.944C143.615 31.712 143.631 31.536 143.639 31.416L140.627 36H138.479V29.448H140.207V32.04Z" fill="#161616"/>
</svg>
