<svg width="20" height="60" viewBox="0 0 20 60" fill="none" xmlns="http://www.w3.org/2000/svg">
<path d="M2.78655 59.261C2.36828 59.9619 1.45156 60.2074 0.739 59.8094C0.0264371 59.4114 -0.212138 58.5205 0.206128 57.8196L17.2135 29.3194C17.6318 28.6184 18.5485 28.3729 19.261 28.7709C19.9736 29.169 20.2122 30.0598 19.7939 30.7607L2.78655 59.261Z" fill="white"/>
<path d="M2.78655 59.261C2.36828 59.9619 1.45156 60.2074 0.739 59.8094C0.0264371 59.4114 -0.212138 58.5205 0.206128 57.8196L17.2135 29.3194C17.6318 28.6184 18.5485 28.3729 19.261 28.7709C19.9736 29.169 20.2122 30.0598 19.7939 30.7607L2.78655 59.261Z" fill="white"/>
<path d="M0.206092 2.18042C-0.212174 1.4795 0.0264004 0.588636 0.738963 0.190608C1.45153 -0.20742 2.36824 0.0381168 2.78651 0.73903L19.6461 28.9916C20.0644 29.6926 19.8258 30.5834 19.1132 30.9814C18.4007 31.3795 17.484 31.1339 17.0657 30.433L0.206092 2.18042Z" fill="white"/>
<path d="M0.206092 2.18042C-0.212174 1.4795 0.0264004 0.588636 0.738963 0.190608C1.45153 -0.20742 2.36824 0.0381168 2.78651 0.73903L19.6461 28.9916C20.0644 29.6926 19.8258 30.5834 19.1132 30.9814C18.4007 31.3795 17.484 31.1339 17.0657 30.433L0.206092 2.18042Z" fill="white"/>
</svg>
