<svg width="84" height="62" viewBox="0 0 84 62" fill="none" xmlns="http://www.w3.org/2000/svg">
<path d="M0.250003 61.5C2.58334 51.8333 4.91667 41.3333 7.25001 30C9.58334 18.8333 11.4167 8.91667 12.75 0.249996L36.5 0.249999L38.25 3C35.9167 11.8333 32.75 21.5 28.75 32C24.75 42.6667 20.6667 52.5 16.5 61.5L0.250003 61.5ZM46.5 61.5C48.8333 51.8333 51.1667 41.3333 53.5 30C55.8333 18.8333 57.6667 8.91667 59 0.25L82.5 0.250003L84 3C81.6667 11.8333 78.5833 21.5 74.75 32C70.75 42.6667 66.6667 52.5 62.5 61.5L46.5 61.5Z" fill="#70D3EC" fill-opacity="0.3"/>
</svg>
