<svg width="36" height="37" viewBox="0 0 36 37" fill="none" xmlns="http://www.w3.org/2000/svg">
<path fill-rule="evenodd" clip-rule="evenodd" d="M0 18.8389C0 28.78 8.05887 36.8389 18 36.8389C27.9411 36.8389 36 28.78 36 18.8389C36 8.89774 27.9411 0.838867 18 0.838867C8.05887 0.838867 0 8.89774 0 18.8389ZM14.7 27.0888L15.0062 22.5005L15.006 22.5003L23.3527 14.9681C23.719 14.643 23.2727 14.4844 22.7864 14.7793L12.4854 21.2781L8.03598 19.8893C7.07509 19.5951 7.06819 18.9348 8.25171 18.4601L25.5902 11.7745C26.3821 11.415 27.1464 11.9647 26.8441 13.1767L23.8914 27.0912C23.6852 28.0799 23.0877 28.3164 22.26 27.8597L17.762 24.5365L15.6 26.6388C15.5932 26.6455 15.5864 26.6521 15.5796 26.6586C15.3378 26.8941 15.1378 27.0888 14.7 27.0888Z" fill="black"/>
</svg>
