<svg width="50" height="50" viewBox="0 0 50 50" fill="none" xmlns="http://www.w3.org/2000/svg">
<path d="M35.1945 15.5646C34.2527 14.6948 32.861 14.8469 32.0862 15.9042L22.7267 28.6759L17.8556 22.552C17.0433 21.5307 15.6473 21.4421 14.7375 22.3539C13.8278 23.2658 13.7488 24.8329 14.5611 25.8541L20.8652 33.7796C20.9928 34.0229 21.1599 34.2456 21.3654 34.4354C22.3073 35.3052 23.699 35.1532 24.4738 34.0958L35.497 19.0539C36.2719 17.9966 36.1364 16.4344 35.1945 15.5646Z" fill="#2594DA"/>
<path fill-rule="evenodd" clip-rule="evenodd" d="M25 50C38.8071 50 50 38.8071 50 25C50 11.1929 38.8071 0 25 0C11.1929 0 0 11.1929 0 25C0 38.8071 11.1929 50 25 50ZM24.831 47.6351C37.2388 47.6351 47.2972 37.5767 47.2972 25.1689C47.2972 12.7612 37.2388 2.70272 24.831 2.70272C12.4233 2.70272 2.36481 12.7612 2.36481 25.1689C2.36481 37.5767 12.4233 47.6351 24.831 47.6351Z" fill="#2594DA"/>
</svg>
