<svg width="36" height="36" viewBox="0 0 36 36" fill="none" xmlns="http://www.w3.org/2000/svg">
<path fill-rule="evenodd" clip-rule="evenodd" d="M18 0C8.05887 0 0 8.05887 0 18C0 27.9411 8.05887 36 18 36C27.9411 36 36 27.9411 36 18C36 8.05887 27.9411 0 18 0ZM19.8261 23.576C19.6454 23.7622 19.2924 23.7999 19.2924 23.7999H18.1236C18.1236 23.7999 15.545 23.9485 13.2734 21.6801C10.7962 19.2051 8.60872 14.2947 8.60872 14.2947C8.60872 14.2947 8.48247 13.9726 8.61924 13.8176C8.77323 13.6423 9.19312 13.6313 9.19312 13.6313L11.987 13.6138C11.987 13.6138 12.25 13.6551 12.4384 13.7882C12.5943 13.8983 12.6814 14.1029 12.6814 14.1029C12.6814 14.1029 13.1328 15.1986 13.7306 16.1897C14.8984 18.1251 15.4417 18.5481 15.8377 18.3407C16.4154 18.0388 16.2423 15.6052 16.2423 15.6052C16.2423 15.6052 16.2528 14.7224 15.9515 14.3287C15.7181 14.024 15.2782 13.935 15.084 13.9102C14.9262 13.8901 15.1844 13.5395 15.5192 13.3826C16.0223 13.1467 16.9099 13.133 17.9591 13.1431C18.7769 13.1513 19.0122 13.2 19.3317 13.2743C20.0731 13.446 20.0499 13.9961 20 15.1833C19.985 15.5384 19.9677 15.9505 19.9677 16.4265C19.9677 16.5334 19.9645 16.6474 19.9611 16.7647C19.9438 17.373 19.9239 18.0695 20.3417 18.3288C20.5559 18.4609 21.0791 18.348 22.3885 16.2154C23.0093 15.2041 23.4741 14.0158 23.4741 14.0158C23.4741 14.0158 23.5765 13.8038 23.7343 13.7129C23.8959 13.6203 24.114 13.6487 24.114 13.6487L27.0542 13.6313C27.0542 13.6313 27.9379 13.5294 28.0804 13.913C28.2306 14.314 27.7505 15.2519 26.5491 16.788C25.411 18.2439 24.8564 18.781 24.9058 19.2552C24.942 19.6027 25.3025 19.9163 25.9954 20.533C27.4394 21.8193 27.8265 22.4961 27.9195 22.6587C27.9272 22.6722 27.9329 22.6821 27.937 22.6886C28.5845 23.7191 27.2187 23.7999 27.2187 23.7999L24.6066 23.8347C24.6066 23.8347 24.0461 23.9412 23.3077 23.4548C22.9209 23.2003 22.5429 22.7845 22.1829 22.3885C21.6331 21.7838 21.1252 21.2251 20.6917 21.3571C19.9639 21.5791 19.9859 23.0832 19.9859 23.0832C19.9859 23.0832 19.9916 23.4053 19.8261 23.576Z" fill="black"/>
</svg>
